<svg width="133" height="48" viewBox="0 0 133 48" fill="none" xmlns="http://www.w3.org/2000/svg">
<path d="M0 0H73.4782H132.816V48H0V0Z" fill="#007233"/>
<path d="M9.60073 10.5619C9.48422 10.9114 9.3932 11.3265 9.32767 11.807C9.26214 12.2876 9.21845 12.8119 9.1966 13.3799C9.65534 13.307 10.1141 13.216 10.5728 13.1068C11.0388 12.9976 11.5121 12.8629 11.9927 12.7027C11.9126 12.943 11.8544 13.2342 11.818 13.5765C11.7816 13.9187 11.7633 14.2718 11.7633 14.6359C11.7706 15 11.7925 15.3604 11.8289 15.7172C11.8726 16.074 11.9272 16.3835 11.9927 16.6456C11.6286 16.5655 11.2136 16.5 10.7476 16.449C10.2816 16.3908 9.78641 16.3434 9.26214 16.307C9.32039 16.824 9.3932 17.3119 9.48058 17.7706C9.56796 18.2221 9.68083 18.6226 9.81917 18.9721C9.56432 18.9284 9.26214 18.8956 8.91262 18.8738C8.56311 18.8447 8.20267 18.8337 7.83131 18.841C7.45995 18.841 7.09223 18.8592 6.72816 18.8956C6.37136 18.9248 6.05825 18.9721 5.78884 19.0376C5.94903 18.5862 6.0801 18.1383 6.18204 17.6942C6.28398 17.2427 6.3568 16.7876 6.40049 16.3289C5.85437 16.3726 5.34102 16.4381 4.86044 16.5255C4.37985 16.6056 3.95388 16.7184 3.58252 16.8641C3.62621 16.6165 3.65898 16.318 3.68083 15.9684C3.70267 15.6117 3.71359 15.2476 3.71359 14.8762C3.71359 14.5049 3.69539 14.1408 3.65898 13.784C3.62985 13.4272 3.58252 13.1141 3.51699 12.8447C4.45631 13.1723 5.39563 13.3799 6.33495 13.4672C6.2767 12.9867 6.18932 12.5061 6.07282 12.0255C5.95631 11.5449 5.81796 11.057 5.65777 10.5619C5.89806 10.642 6.18932 10.7002 6.53155 10.7367C6.87379 10.7658 7.22694 10.7803 7.59102 10.7803C7.9551 10.7731 8.31553 10.7512 8.67233 10.7148C9.02913 10.6784 9.33859 10.6274 9.60073 10.5619Z" fill="white"/>
<path d="M30.2549 17.0498C29.9927 17.6104 29.7743 18.1274 29.5995 18.6007C29.432 19.074 29.2937 19.54 29.1845 19.9988C29.0752 20.4575 28.9915 20.9272 28.9333 21.4078C28.875 21.8883 28.8313 22.4163 28.8022 22.9915C28.2779 23.1371 27.7282 23.2609 27.1529 23.3629C26.585 23.4721 26.0133 23.5595 25.4381 23.625C24.8701 23.6978 24.3167 23.7524 23.7779 23.7888C23.2391 23.8252 22.7439 23.8434 22.2925 23.8434C20.392 23.8434 18.6517 23.5231 17.0716 22.8823C15.4915 22.2415 14.068 21.2439 12.801 19.8896C13.3762 19.9769 13.9369 20.0425 14.483 20.0862C14.8107 19.3871 15.1857 18.7828 15.608 18.2731C16.0376 17.7633 16.4854 17.3155 16.9515 16.9296C17.4248 16.5437 17.9053 16.2051 18.3932 15.9138C18.8811 15.6153 19.3544 15.335 19.8131 15.0728C20.2718 14.8034 20.7051 14.5376 21.1129 14.2755C21.5206 14.0061 21.8774 13.7039 22.1833 13.3689C22.4891 13.034 22.7294 12.6517 22.9041 12.2221C23.0789 11.7852 23.1663 11.2682 23.1663 10.6711C23.1663 10.4454 23.1444 10.2451 23.1007 10.0704C22.358 10.1286 21.6044 10.2379 20.8398 10.3981C20.0752 10.5583 19.3289 10.7767 18.6007 11.0534C17.8726 11.3228 17.1735 11.6614 16.5036 12.0692C15.8337 12.4697 15.2184 12.943 14.6578 13.4891C14.6578 12.3167 14.5376 11.2282 14.2973 10.2233C14.0643 9.21845 13.6711 8.26456 13.1177 7.36165C13.5255 7.1432 13.966 6.95388 14.4393 6.79369C14.9199 6.62621 15.4078 6.48422 15.9029 6.36772C16.3981 6.24393 16.8932 6.14563 17.3883 6.07282C17.8908 5.99272 18.3714 5.93083 18.8301 5.88714C19.2888 5.84345 19.7148 5.81432 20.108 5.79976C20.5085 5.77791 20.8544 5.76699 21.1456 5.76699C22.0413 5.76699 22.9114 5.86893 23.7561 6.07282C24.6007 6.2767 25.3981 6.58981 26.1481 7.01214C26.9053 7.42718 27.6044 7.95874 28.2451 8.6068C28.8932 9.24757 29.4648 10.0085 29.96 10.8896C29.4357 10.6784 28.8932 10.5 28.3325 10.3544C28.3471 10.449 28.3544 10.5364 28.3544 10.6165C28.3544 10.6893 28.3544 10.7658 28.3544 10.8459C28.3544 11.574 28.2706 12.2184 28.1032 12.7791C27.943 13.3398 27.7245 13.8386 27.4478 14.2755C27.1711 14.7124 26.8434 15.1019 26.4648 15.4442C26.0934 15.7791 25.6966 16.0922 25.2743 16.3835C24.8592 16.6675 24.4296 16.9405 23.9854 17.2027C23.5413 17.4575 23.108 17.7269 22.6857 18.0109C22.2633 18.2876 21.8629 18.5898 21.4842 18.9175C21.1056 19.2379 20.7706 19.6056 20.4794 20.0206C21.3095 19.9333 22.1468 19.8095 22.9915 19.6493C23.8434 19.4818 24.6845 19.2779 25.5146 19.0376C26.3447 18.79 27.1566 18.5024 27.9502 18.1748C28.7512 17.8471 29.5194 17.4721 30.2549 17.0498Z" fill="white"/>
<path d="M46.9988 17.6723C46.0449 19.5291 44.767 20.9454 43.165 21.9211C41.5631 22.8896 39.5898 23.3738 37.2451 23.3738C36.8738 23.3738 36.4442 23.3592 35.9563 23.3301C35.4684 23.3083 34.9624 23.2718 34.4381 23.2209C33.9138 23.1699 33.3859 23.1044 32.8544 23.0243C32.3301 22.9515 31.8422 22.8604 31.3908 22.7512C31.7767 21.9138 32.057 21.0692 32.2318 20.2172C32.4138 19.358 32.5049 18.4515 32.5049 17.4976C33.1238 17.7816 33.7828 18.0291 34.4818 18.2403C35.1808 18.4515 35.8799 18.6299 36.5789 18.7755C37.2852 18.9138 37.9733 19.0194 38.6432 19.0922C39.3204 19.165 39.9466 19.2051 40.5218 19.2124C40.5218 19.1687 40.5255 19.1286 40.5328 19.0922C40.54 19.0558 40.5437 19.0158 40.5437 18.9721C40.5437 18.5206 40.4563 18.1383 40.2816 17.8252C40.1068 17.5049 39.8883 17.2391 39.6262 17.0279C39.3714 16.8167 39.0947 16.6529 38.7961 16.5364C38.4976 16.4199 38.2209 16.3325 37.966 16.2743C37.7112 16.216 37.5 16.1833 37.3325 16.176C37.1723 16.1614 37.0995 16.1541 37.1141 16.1541L37.0485 13.7294C37.6092 13.7148 38.0971 13.6456 38.5121 13.5218C38.9272 13.3981 39.2803 13.2379 39.5716 13.0413C39.8701 12.8447 40.1104 12.6262 40.2925 12.3859C40.4818 12.1383 40.6274 11.8871 40.7294 11.6323C40.8386 11.3774 40.9114 11.1262 40.9478 10.8786C40.9915 10.6311 41.0133 10.4053 41.0133 10.2015C41.0133 10.1432 41.0097 10.0886 41.0024 10.0376C40.9951 9.97937 40.9915 9.92112 40.9915 9.86286C40.2488 9.90655 39.5097 9.98665 38.7743 10.1032C38.0461 10.2197 37.3289 10.3835 36.6226 10.5947C35.9235 10.8058 35.2391 11.0716 34.5692 11.392C33.8993 11.7124 33.2512 12.1056 32.625 12.5716C32.4867 11.6177 32.2391 10.693 31.8823 9.79733C31.5255 8.9017 31.085 8.02063 30.5607 7.15413C31.0777 6.94296 31.6638 6.75 32.3192 6.57524C32.9818 6.40049 33.6517 6.25121 34.3289 6.12743C35.0133 5.99636 35.6796 5.89806 36.3277 5.83252C36.983 5.75971 37.5583 5.7233 38.0534 5.7233C39.0874 5.7233 40.0922 5.84345 41.068 6.08374C42.0437 6.32403 42.9502 6.67354 43.7876 7.13228C44.625 7.58374 45.3677 8.13714 46.0158 8.79248C46.6638 9.44053 47.1808 10.1796 47.5667 11.0097L45.9721 10.54C45.9575 10.8677 45.9066 11.1808 45.8192 11.4794C45.7318 11.7706 45.6189 12.0473 45.4806 12.3095C45.3422 12.5643 45.1857 12.801 45.0109 13.0194C44.8362 13.2379 44.6578 13.4345 44.4757 13.6092C44.0534 14.0243 43.5765 14.3883 43.0449 14.7015C43.5182 14.9927 43.9442 15.324 44.3228 15.6954C44.483 15.8556 44.6396 16.0303 44.7925 16.2197C44.9527 16.409 45.091 16.6129 45.2075 16.8313C45.3313 17.0498 45.4296 17.2828 45.5024 17.5303C45.5825 17.7706 45.6262 18.0255 45.6335 18.2949C45.8592 18.2075 46.085 18.1129 46.3107 18.0109C46.5437 17.909 46.7731 17.7961 46.9988 17.6723Z" fill="white"/>
<path d="M64.0158 21.7682C63.9138 21.7682 63.8119 21.7646 63.71 21.7573C63.6153 21.75 63.517 21.7464 63.415 21.7464C62.8835 21.7464 62.3228 21.7791 61.733 21.8447C61.1505 21.9102 60.568 22.0085 59.9854 22.1396C59.4029 22.2706 58.835 22.4308 58.2816 22.6201C57.7282 22.8167 57.2148 23.0388 56.7415 23.2864C56.8871 22.8058 57.0364 22.3252 57.1893 21.8447C57.3422 21.3641 57.4879 20.8799 57.6262 20.392C57.7646 19.8968 57.892 19.3944 58.0085 18.8847C58.125 18.3677 58.2269 17.8362 58.3143 17.29C57.8119 17.2464 57.3022 17.2136 56.7852 17.1917C56.2755 17.1699 55.7694 17.159 55.267 17.159C54.6626 17.159 54.0328 17.1735 53.3774 17.2027C52.7221 17.2318 52.0595 17.2755 51.3896 17.3337C50.7197 17.3847 50.0534 17.4539 49.3908 17.5413C48.7282 17.6214 48.0874 17.716 47.4684 17.8252C48.4587 16.0194 49.2816 14.1626 49.9369 12.2549C50.5995 10.3398 51.0874 8.3483 51.4005 6.28034C51.7209 6.36772 52.0631 6.44417 52.4272 6.50971C52.7985 6.56796 53.1735 6.61893 53.5522 6.66262C53.9308 6.69903 54.3022 6.72816 54.6663 6.75C55.0376 6.77184 55.3871 6.78277 55.7148 6.78277C56.1444 6.78277 56.5704 6.76456 56.9927 6.72816C57.415 6.69175 57.841 6.64078 58.2706 6.57524C57.3968 7.6165 56.585 8.73058 55.835 9.91748C55.0922 11.0971 54.4551 12.4005 53.9235 13.8277C54.1857 13.8495 54.4405 13.8714 54.6881 13.8932C54.943 13.9078 55.1978 13.915 55.4527 13.915C55.9697 13.915 56.4794 13.8932 56.9818 13.8495C57.4842 13.7985 57.9939 13.7221 58.5109 13.6201C58.4672 12.4114 58.3107 11.1007 58.0413 9.68811C58.2015 9.70267 58.358 9.71359 58.5109 9.72087C58.6711 9.72816 58.8277 9.7318 58.9806 9.7318C59.3301 9.7318 59.7124 9.71723 60.1274 9.68811C60.5425 9.6517 60.9648 9.60073 61.3944 9.53519C61.8313 9.46238 62.2609 9.375 62.6833 9.27306C63.1056 9.17112 63.4915 9.05461 63.841 8.92354C63.7027 9.89199 63.6044 10.8495 63.5461 11.7961C63.4879 12.7354 63.4587 13.6784 63.4587 14.625C63.4587 15.8337 63.5061 17.0316 63.6007 18.2184C63.6954 19.4053 63.8337 20.5886 64.0158 21.7682Z" fill="white"/>
<path d="M10.9041 29.9235C10.6201 31.7803 10.4563 33.6371 10.4126 35.4939C11.4976 34.6129 12.5024 33.6335 13.4272 32.5558C14.3592 31.4709 15.2403 30.2949 16.0704 29.0279C16.7694 29.7706 17.5267 30.4041 18.3422 30.9284C19.1578 31.4527 20.0279 31.8932 20.9527 32.25H20.9964C20.0498 32.9782 19.0558 33.6553 18.0146 34.2816C16.9733 34.9005 15.9102 35.4393 14.8252 35.8981C15.5534 37.0121 16.3835 38.0388 17.3155 38.9782C18.2549 39.9175 19.2597 40.8058 20.3301 41.6432H20.2318C18.3022 42.0073 16.4235 42.6663 14.5959 43.6201C14.1007 42.4114 13.5073 41.301 12.8155 40.2888C12.1311 39.2767 11.3228 38.3665 10.3908 37.5583C10.4053 38.3665 10.4345 39.1748 10.4782 39.983C10.5218 40.7913 10.5837 41.5995 10.6638 42.4078C10.1104 42.4369 9.5716 42.4806 9.04733 42.5388C8.52306 42.6044 7.99879 42.6845 7.47451 42.7791C6.95752 42.8811 6.43689 42.9976 5.91262 43.1286C5.38835 43.2597 4.84587 43.4053 4.28519 43.5655C5.33374 40.5073 5.85801 37.3762 5.85801 34.1723C5.85801 33.4078 5.8216 32.6323 5.74879 31.8459C5.68325 31.0522 5.58495 30.233 5.45388 29.3883C6.15291 29.5995 6.80461 29.7561 7.40898 29.858C8.02063 29.96 8.61408 30.0109 9.18932 30.0109C9.42233 30.0109 9.6699 30.0073 9.93204 30C10.2015 29.9854 10.5255 29.96 10.9041 29.9235Z" fill="white"/>
<path d="M38.5049 41.8289C37.4417 41.909 36.4078 42.0947 35.4029 42.3859C34.4053 42.6699 33.3896 43.0631 32.3556 43.5655C32.1954 42 31.8131 40.5546 31.2087 39.2294C30.9175 39.2949 30.6226 39.3459 30.324 39.3823C30.0255 39.4187 29.716 39.4369 29.3956 39.4369C29.2718 39.4369 29.1481 39.4369 29.0243 39.4369C28.9078 39.4369 28.7876 39.4296 28.6638 39.415C28.6857 40.5437 28.7294 41.6687 28.7949 42.79C28.5619 42.7536 28.3289 42.7282 28.0959 42.7136C27.8629 42.7063 27.6408 42.7027 27.4296 42.7027C26.7087 42.7027 25.9187 42.7828 25.0595 42.943C24.2002 43.1104 23.2755 43.358 22.2852 43.6857C22.6566 42.6808 22.9733 41.6833 23.2354 40.693C23.5049 39.7027 23.716 38.7015 23.8689 37.6893C23.3738 37.3617 22.9478 37.0413 22.591 36.7282C22.2415 36.415 21.9757 36.1529 21.7937 35.9417C22.1505 36.0437 22.5182 36.1383 22.8968 36.2257C23.2828 36.3131 23.6687 36.3896 24.0546 36.4551C24.142 35.625 24.1857 34.784 24.1857 33.932V33.5279C23.7925 33.6517 23.4029 33.7828 23.017 33.9211C22.6311 34.0595 22.2451 34.2124 21.8592 34.3799C22.085 33.6517 22.1978 32.9782 22.1978 32.3592C22.1978 31.8422 22.1323 31.3544 22.0012 30.8956C21.8701 30.4296 21.6808 29.9927 21.4333 29.585C22.9988 29.3665 24.3823 29.2209 25.5837 29.1481C26.7925 29.068 27.8701 29.0279 28.8167 29.0279C29.2536 29.0279 29.7561 29.0388 30.324 29.0607C30.892 29.0752 31.4745 29.1189 32.0716 29.1917C32.6687 29.2646 33.2621 29.3701 33.8519 29.5085C34.449 29.6468 34.9951 29.8362 35.4903 30.0765C35.9854 30.3167 36.4078 30.6189 36.7573 30.983C37.1141 31.3471 37.3544 31.784 37.4782 32.2937C37.6456 32.2136 37.8095 32.1335 37.9697 32.0534C38.1299 31.9733 38.2937 31.8823 38.4612 31.7803C38.3738 32.3046 38.2282 32.8289 38.0243 33.3532C37.8204 33.8701 37.5655 34.3726 37.2597 34.8604C36.9612 35.3483 36.6117 35.8107 36.2112 36.2476C35.818 36.6845 35.3883 37.0886 34.9223 37.46C35.9709 39.1201 37.165 40.5765 38.5049 41.8289ZM31.0995 32.3592C30.8083 32.3592 30.4624 32.3774 30.0619 32.4138C29.6614 32.443 29.2245 32.4794 28.7512 32.5231C28.7294 33.2221 28.7075 33.9211 28.6857 34.6201C28.6711 35.3119 28.6638 36 28.6638 36.6845C29.1007 36.6189 29.5121 36.5133 29.8981 36.3677C30.284 36.2148 30.6262 36.0182 30.9248 35.7779C31.2233 35.5376 31.4672 35.2464 31.6566 34.9041C31.8532 34.5546 31.9806 34.1468 32.0388 33.6808C32.3155 33.6371 32.5959 33.5934 32.8799 33.5498C33.1711 33.5061 33.466 33.4551 33.7646 33.3968C33.75 33.3968 33.7427 33.3932 33.7427 33.3859V33.375H33.7646C33.6189 33.2148 33.466 33.0728 33.3058 32.949C33.1529 32.818 32.9745 32.7087 32.7706 32.6214C32.5667 32.534 32.3301 32.4684 32.0607 32.4248C31.7913 32.3811 31.4709 32.3592 31.0995 32.3592Z" fill="white"/>
<path d="M46.1942 42.3641C45.4442 42.3641 44.7706 42.3677 44.1735 42.375C43.5765 42.375 43.0194 42.3896 42.5024 42.4187C41.9927 42.4551 41.5049 42.5061 41.0388 42.5716C40.5801 42.6444 40.1068 42.7464 39.6189 42.8774C40.0704 41.5012 40.409 40.1432 40.6347 38.8034C40.8677 37.4563 40.9842 36.1092 40.9842 34.7621C40.9842 33.5461 40.8859 32.3155 40.6893 31.0704C40.2379 31.0049 39.79 30.9502 39.3459 30.9066H39.3022L40.6019 30.5789L40.3726 29.4757C40.8022 29.5995 41.2245 29.7124 41.6396 29.8143C42.0546 29.9163 42.4769 30.0073 42.9066 30.0874C44.1299 29.8617 45.3604 29.6905 46.5983 29.574C47.8434 29.4502 49.1032 29.3883 50.3774 29.3883C50.9381 29.3883 51.4988 29.4029 52.0595 29.432C52.6274 29.4612 53.2354 29.4976 53.8835 29.5413C53.7306 30.0874 53.6141 30.6335 53.534 31.1796C53.4539 31.7257 53.4138 32.2864 53.4138 32.8617C53.4138 33.0364 53.4175 33.2403 53.4248 33.4733C53.4393 33.699 53.4648 33.9466 53.5012 34.216C52.2561 33.7427 51.0109 33.3204 49.7658 32.949C48.5206 32.5704 47.2536 32.2427 45.9648 31.966C45.9066 32.4612 45.8592 32.9527 45.8228 33.4405C45.7937 33.9284 45.7682 34.4199 45.7464 34.915C46.3653 34.7985 46.9951 34.7148 47.6359 34.6638C48.284 34.6056 48.9575 34.5692 49.6566 34.5546C49.591 34.824 49.5364 35.0934 49.4927 35.3629C49.4563 35.6323 49.4381 35.909 49.4381 36.193C49.4381 36.6153 49.5036 37.0922 49.6347 37.6238C48.9794 37.3544 48.3313 37.1068 47.6905 36.8811C47.0498 36.6481 46.4017 36.4405 45.7464 36.2585C45.7464 36.8483 45.7573 37.4636 45.7791 38.1044C45.801 38.7379 45.841 39.375 45.8993 40.0158C47.1444 39.8483 48.3968 39.6262 49.6566 39.3495C50.9163 39.0655 52.1978 38.7197 53.5012 38.3119C53.4138 38.7852 53.3447 39.2476 53.2937 39.699C53.2427 40.1432 53.2172 40.5692 53.2172 40.9769C53.2172 41.7488 53.3046 42.5388 53.4794 43.3471C52.2415 43.0704 51.0182 42.8337 49.8095 42.6371C48.608 42.4405 47.3883 42.2803 46.1505 42.1566L46.1942 42.3641Z" fill="white"/>
<path d="M65.5813 42.3641C65.4066 42.3641 65.2609 42.3641 65.1444 42.3641C65.0352 42.3568 64.9442 42.3532 64.8714 42.3532C64.8058 42.3532 64.7549 42.3532 64.7184 42.3532C64.682 42.3459 64.6493 42.3422 64.6201 42.3422C63.8046 42.3422 62.9818 42.4005 62.1517 42.517C61.3216 42.6335 60.4769 42.8265 59.6177 43.0959C59.6032 42.9284 59.5959 42.7427 59.5959 42.5388C59.5959 42.335 59.5959 42.1493 59.5959 41.9818C59.5959 40.3362 59.7233 38.7561 59.9782 37.2415C60.233 35.7197 60.6626 34.2342 61.267 32.7852C60.2257 32.9017 59.1735 33.0874 58.1104 33.3422C57.0473 33.5898 55.9988 33.9211 54.9648 34.3362C55.0959 33.8119 55.1942 33.3167 55.2597 32.8507C55.3325 32.3847 55.3689 31.9333 55.3689 31.4964C55.3689 31.0886 55.3398 30.6772 55.2816 30.2621C55.2306 29.8398 55.1541 29.4138 55.0522 28.9842C56.3192 29.2318 57.5934 29.4393 58.875 29.6068C60.1638 29.7743 61.4527 29.8799 62.7415 29.9235C62.9454 29.6104 63.1529 29.2937 63.3641 28.9733C63.5825 28.6529 63.8155 28.3362 64.0631 28.0231C64.0267 28.3507 63.9976 28.6711 63.9757 28.9842C63.9612 29.2973 63.9466 29.6177 63.932 29.9454H63.9976C64.8204 29.9454 65.6468 29.9163 66.4769 29.858C67.3143 29.7998 68.21 29.7015 69.1638 29.5631C69.0182 29.818 68.8944 30.0874 68.7925 30.3714C68.6978 30.6553 68.6505 31.0049 68.6505 31.4199C68.6505 31.6529 68.6723 31.915 68.716 32.2063C68.767 32.4903 68.8507 32.818 68.9672 33.1893C68.1663 33.0073 67.3398 32.8689 66.4879 32.7743C65.6359 32.6796 64.7767 32.6323 63.9102 32.6323C63.9539 34.2852 64.1068 35.9199 64.3689 37.5364C64.6384 39.1456 65.0425 40.7549 65.5813 42.3641Z" fill="white"/>
<path d="M83.625 29.7269C83.3701 29.9308 83.1299 30.1456 82.9041 30.3714C82.6784 30.5898 82.4636 30.8228 82.2597 31.0704C82.9442 31.2015 83.5922 31.4126 84.2039 31.7039C84.8155 31.9879 85.3471 32.3483 85.7985 32.7852C86.25 33.2221 86.6068 33.7318 86.8689 34.3143C87.1384 34.8896 87.2731 35.5303 87.2731 36.2367C87.2731 37.0376 87.1384 37.7621 86.8689 38.4102C86.6068 39.051 86.2391 39.6262 85.7658 40.1359C85.2998 40.6383 84.7464 41.0752 84.1056 41.4466C83.4648 41.8107 82.7694 42.1129 82.0194 42.3532C81.2694 42.5862 80.4794 42.7609 79.6493 42.8774C78.8192 42.9939 77.9818 43.0522 77.1371 43.0522C76.8386 43.0522 76.5291 43.0449 76.2087 43.0303C75.8884 43.0231 75.5752 43.0085 75.2694 42.9867C74.9709 42.9648 74.6905 42.932 74.4284 42.8883C74.1735 42.8519 73.9587 42.8046 73.784 42.7464C73.9879 42.5789 74.1808 42.4114 74.3629 42.2439C74.5522 42.0692 74.7233 41.8944 74.8762 41.7197C74.1845 41.5886 73.5328 41.392 72.9211 41.1299C72.3167 40.8677 71.7852 40.5328 71.3265 40.125C70.8677 39.71 70.5036 39.2257 70.2342 38.6723C69.9721 38.1117 69.841 37.4709 69.841 36.75C69.841 35.9053 69.9939 35.1444 70.2998 34.4672C70.6129 33.7828 71.0388 33.1748 71.5777 32.6432C72.1165 32.1117 72.75 31.6566 73.4782 31.2779C74.2063 30.8993 74.9891 30.5862 75.8265 30.3386C76.6638 30.091 77.534 29.909 78.4369 29.7925C79.3471 29.676 80.25 29.6177 81.1456 29.6177C81.517 29.6177 81.8956 29.6286 82.2816 29.6505C82.6748 29.665 83.0862 29.6905 83.5158 29.7269H83.625ZM82.5328 35.4721C82.5328 34.8532 82.3981 34.3471 82.1286 33.9539C81.8665 33.5607 81.517 33.2476 81.0801 33.0146C81 33.2039 80.9235 33.4005 80.8507 33.6044C80.7779 33.801 80.7124 34.0049 80.6541 34.216C80.1444 34.0704 79.7148 33.9721 79.3653 33.9211C79.0231 33.8701 78.7354 33.8447 78.5024 33.8447C78.0437 33.8447 77.5813 33.9211 77.1153 34.074C76.6493 34.2269 76.2306 34.449 75.8592 34.7403C75.4879 35.0243 75.182 35.3738 74.9417 35.7888C74.7087 36.1966 74.5922 36.659 74.5922 37.176C74.5922 37.6711 74.716 38.1262 74.9636 38.5413C75.2184 38.949 75.5498 39.3277 75.9575 39.6772C76.0231 39.4515 76.0704 39.2221 76.0995 38.9891C76.1359 38.7561 76.1614 38.5158 76.176 38.2682C76.7148 38.5158 77.1917 38.6869 77.6068 38.7816C78.0218 38.8762 78.3859 38.9235 78.699 38.9235C79.1796 38.9235 79.6493 38.8471 80.108 38.6942C80.5667 38.534 80.9745 38.3046 81.3313 38.0061C81.6954 37.7075 81.9867 37.3471 82.2051 36.9248C82.4235 36.4951 82.5328 36.0109 82.5328 35.4721Z" fill="white"/>
<path d="M105.568 41.8289C104.505 41.909 103.471 42.0947 102.466 42.3859C101.468 42.6699 100.453 43.0631 99.4187 43.5655C99.2585 42 98.8762 40.5546 98.2718 39.2294C97.9806 39.2949 97.6857 39.3459 97.3871 39.3823C97.0886 39.4187 96.7791 39.4369 96.4587 39.4369C96.335 39.4369 96.2112 39.4369 96.0874 39.4369C95.9709 39.4369 95.8507 39.4296 95.7269 39.415C95.7488 40.5437 95.7925 41.6687 95.858 42.79C95.625 42.7536 95.392 42.7282 95.159 42.7136C94.926 42.7063 94.7039 42.7027 94.4927 42.7027C93.7718 42.7027 92.9818 42.7828 92.1226 42.943C91.2634 43.1104 90.3386 43.358 89.3483 43.6857C89.7197 42.6808 90.0364 41.6833 90.2985 40.693C90.568 39.7027 90.7791 38.7015 90.932 37.6893C90.4369 37.3617 90.0109 37.0413 89.6541 36.7282C89.3046 36.415 89.0388 36.1529 88.8568 35.9417C89.2136 36.0437 89.5813 36.1383 89.96 36.2257C90.3459 36.3131 90.7318 36.3896 91.1177 36.4551C91.2051 35.625 91.2488 34.784 91.2488 33.932V33.5279C90.8556 33.6517 90.466 33.7828 90.0801 33.9211C89.6942 34.0595 89.3083 34.2124 88.9223 34.3799C89.1481 33.6517 89.2609 32.9782 89.2609 32.3592C89.2609 31.8422 89.1954 31.3544 89.0643 30.8956C88.9333 30.4296 88.7439 29.9927 88.4964 29.585C90.0619 29.3665 91.4454 29.2209 92.6468 29.1481C93.8556 29.068 94.9333 29.0279 95.8799 29.0279C96.3167 29.0279 96.8192 29.0388 97.3871 29.0607C97.9551 29.0752 98.5376 29.1189 99.1347 29.1917C99.7318 29.2646 100.325 29.3701 100.915 29.5085C101.512 29.6468 102.058 29.8362 102.553 30.0765C103.049 30.3167 103.471 30.6189 103.82 30.983C104.177 31.3471 104.417 31.784 104.541 32.2937C104.709 32.2136 104.873 32.1335 105.033 32.0534C105.193 31.9733 105.357 31.8823 105.524 31.7803C105.437 32.3046 105.291 32.8289 105.087 33.3532C104.883 33.8701 104.629 34.3726 104.323 34.8604C104.024 35.3483 103.675 35.8107 103.274 36.2476C102.881 36.6845 102.451 37.0886 101.985 37.46C103.034 39.1201 104.228 40.5765 105.568 41.8289ZM98.1626 32.3592C97.8714 32.3592 97.5255 32.3774 97.125 32.4138C96.7245 32.443 96.2876 32.4794 95.8143 32.5231C95.7925 33.2221 95.7706 33.9211 95.7488 34.6201C95.7342 35.3119 95.7269 36 95.7269 36.6845C96.1638 36.6189 96.5752 36.5133 96.9612 36.3677C97.3471 36.2148 97.6893 36.0182 97.9879 35.7779C98.2864 35.5376 98.5303 35.2464 98.7197 34.9041C98.9163 34.5546 99.0437 34.1468 99.1019 33.6808C99.3786 33.6371 99.659 33.5934 99.943 33.5498C100.234 33.5061 100.529 33.4551 100.828 33.3968C100.813 33.3968 100.806 33.3932 100.806 33.3859V33.375H100.828C100.682 33.2148 100.529 33.0728 100.369 32.949C100.216 32.818 100.038 32.7087 99.8337 32.6214C99.6299 32.534 99.3932 32.4684 99.1238 32.4248C98.8544 32.3811 98.534 32.3592 98.1626 32.3592Z" fill="white"/>
<path d="M122.137 36.4333C122.159 36.557 122.17 36.6808 122.17 36.8046C122.177 36.9284 122.181 37.0522 122.181 37.176C122.181 37.7876 122.072 38.3629 121.853 38.9017C121.642 39.4333 121.347 39.9248 120.968 40.3762C120.597 40.8204 120.153 41.2209 119.636 41.5777C119.119 41.9345 118.562 42.233 117.965 42.4733C117.368 42.7209 116.742 42.9102 116.086 43.0413C115.431 43.1723 114.772 43.2379 114.109 43.2379C113.658 43.2379 113.199 43.216 112.733 43.1723C112.274 43.1286 111.812 43.1032 111.346 43.0959C110.887 43.0886 110.425 43.1177 109.959 43.1833C109.5 43.2488 109.041 43.3871 108.583 43.5983C108.328 42.7391 108.058 41.9672 107.774 41.2828C107.498 40.591 107.243 40.0012 107.01 39.5133C106.733 38.9454 106.46 38.443 106.191 38.0061C107.035 38.3993 107.862 38.716 108.67 38.9563C109.478 39.1893 110.235 39.3677 110.942 39.4915C111.655 39.6153 112.296 39.6954 112.864 39.7318C113.432 39.7682 113.898 39.7864 114.262 39.7864C114.612 39.7864 114.965 39.7718 115.322 39.7427C115.686 39.7063 116.05 39.6481 116.414 39.568C116.137 39.2621 115.813 39.0109 115.442 38.8143C115.07 38.6104 114.67 38.4357 114.24 38.29C113.818 38.1444 113.374 38.0133 112.908 37.8968C112.449 37.7803 111.994 37.6566 111.542 37.5255C111.091 37.3871 110.654 37.2306 110.232 37.0558C109.809 36.8738 109.424 36.6444 109.074 36.3677C108.644 36.0328 108.331 35.6505 108.135 35.2209C107.938 34.7913 107.818 34.3252 107.774 33.8228C107.527 33.9102 107.308 33.9976 107.119 34.085C106.93 34.165 106.769 34.2342 106.638 34.2925C106.485 34.3653 106.351 34.4308 106.234 34.4891C106.475 33.8337 106.806 33.2549 107.228 32.7524C107.658 32.25 108.138 31.8131 108.67 31.4417C109.201 31.0704 109.766 30.7573 110.363 30.5024C110.967 30.2476 111.564 30.0364 112.154 29.8689C113.538 29.483 115.03 29.2646 116.632 29.2136C117.106 29.2063 117.623 29.1881 118.183 29.159C118.664 29.1299 119.221 29.0862 119.854 29.0279C120.495 28.9697 121.18 28.8823 121.908 28.7658C121.718 29.0352 121.562 29.3301 121.438 29.6505C121.322 29.9709 121.231 30.2985 121.165 30.6335C121.1 30.9684 121.052 31.2998 121.023 31.6274C121.001 31.9478 120.99 32.2464 120.99 32.5231C120.99 32.6978 120.994 32.8653 121.001 33.0255C121.008 33.1857 121.019 33.3277 121.034 33.4515C121.049 33.5971 121.067 33.7354 121.089 33.8665C119.858 33.3641 118.693 33.0109 117.593 32.807C116.494 32.6032 115.456 32.5012 114.481 32.5012C114.189 32.5012 113.909 32.5121 113.64 32.534C113.37 32.5485 113.101 32.5667 112.831 32.5886C112.89 32.8726 112.999 33.1092 113.159 33.2985C113.326 33.4879 113.494 33.6408 113.661 33.7573C113.858 33.8883 114.073 33.9903 114.306 34.0631C114.801 34.2015 115.336 34.3726 115.911 34.5765C116.494 34.7803 117.073 35.0279 117.648 35.3192C118.231 35.6032 118.784 35.9417 119.308 36.335C119.84 36.7209 120.306 37.1723 120.706 37.6893C120.954 37.5073 121.198 37.3107 121.438 37.0995C121.678 36.8883 121.911 36.6663 122.137 36.4333Z" fill="white"/>
</svg>
